<svg xmlns="http://www.w3.org/2000/svg" version="1.1" xmlns:xlink="http://www.w3.org/1999/xlink" xmlns:svgjs="http://svgjs.dev/svgjs" width="1000" height="1000" viewBox="0 0 1000 1000"><rect width="1000" height="1000" fill="#ffffff"></rect><g transform="matrix(0.7,0,0,0.7,149.57575939461384,439.842719698468)"><svg viewBox="0 0 396 68" data-background-color="#ffffff" preserveAspectRatio="xMidYMid meet" height="171" width="1000" xmlns="http://www.w3.org/2000/svg" xmlns:xlink="http://www.w3.org/1999/xlink"><g id="tight-bounds" transform="matrix(1,0,0,1,0.2399989710470436,0.17456190897391366)"><svg viewBox="0 0 395.52 67.65087618205219" height="67.65087618205219" width="395.52"><g><svg viewBox="0 0 485.1230106668122 82.97683234143632" height="67.65087618205219" width="395.52"><g transform="matrix(1,0,0,1,89.60301066681225,11.467854542123256)"><svg viewBox="0 0 395.52 60.04112325718981" height="60.04112325718981" width="395.52"><g id="textblocktransform"><svg viewBox="0 0 395.52 60.04112325718981" height="60.04112325718981" width="395.52" id="textblock"><g><svg viewBox="0 0 395.52 39.07646628332462" height="39.07646628332462" width="395.52"><g transform="matrix(1,0,0,1,0,0)"><svg width="395.52" viewBox="2.25 -37.54999923706055 382.55999755859375 37.79999923706055" height="39.07646628332462" data-palette-color="#f7d65a"><path d="M11.9-0.95L11.9-0.95Q15.6-0.95 18.4-3.13 21.2-5.3 21.2-9.75L21.2-9.75Q21.2-11.75 20.23-13.18 19.25-14.6 17.65-15.38 16.05-16.15 14.15-16.73 12.25-17.3 10.35-17.95 8.45-18.6 6.85-19.5 5.25-20.4 4.28-22.05 3.3-23.7 3.3-26L3.3-26Q3.3-30 6.05-32.55 8.8-35.1 13.4-35.1 18-35.1 22.2-34.05L22.2-34.05 22.75-27.8 21.8-27.4 21.3-31.35Q17.6-34.1 14.35-34.1 11.1-34.1 8.9-32.13 6.7-30.15 6.7-26.2L6.7-26.2Q6.7-23.9 8.55-22.55 10.4-21.2 13.03-20.45 15.65-19.7 18.28-18.75 20.9-17.8 22.75-15.55 24.6-13.3 24.6-9.7L24.6-9.7Q24.6-4.85 21.15-2.4 17.7 0.05 12.05 0.05 6.4 0.05 2.25-3L2.25-3 2.3-8.3 3.25-8.55 3.35-5.7Q4.7-3.8 7.05-2.38 9.4-0.95 11.9-0.95ZM41.15-24.05L41.15-24.05Q38.15-24 34.65-21.85L34.65-21.85 34.65-1 38.4-0.75Q38.4-0.7 38.35 0L38.35 0 28.35 0.05Q28.35-0.4 28.4-0.65L28.4-0.65 31-1Q31.3-1 31.4-1.45L31.4-1.45 31.4-23.4Q31.3-23.75 31.1-23.75L31.1-23.75 28.1-23.85 28.15-24.55Q30.85-25 32.25-25 33.65-25 34.15-24.35 34.65-23.7 34.65-22.95L34.65-22.95 34.65-22.35Q38.8-24.95 42.25-25.15L42.25-25.15Q47-25.15 48.7-22.45L48.7-22.45Q53.05-24.95 56.9-25.15L56.9-25.15Q60.4-25.15 62.2-23.7L62.2-23.7Q63.05-23.05 63.67-21.68 64.3-20.3 64.3-18.4L64.3-18.4 64.3-1 68.05-0.75Q68.05-0.7 68 0L68 0 58 0.05Q58-0.4 58.05-0.65L58.05-0.65 60.65-1Q60.95-1 61.05-1.45L61.05-1.45 61.05-17.15Q61.05-19.15 60.55-20.58 60.05-22 59.45-22.65 58.85-23.3 57.95-23.65L57.95-23.65Q56.95-24.05 55.8-24.05L55.8-24.05Q52.7-24 49.05-21.7L49.05-21.7Q49.7-20.3 49.7-18.4L49.7-18.4 49.7-1 53.45-0.75Q53.45-0.7 53.4 0L53.4 0 43.35 0.05 43.4-0.65 46-1Q46.35-1.05 46.45-1.5L46.45-1.5 46.45-17.2Q46.45-19.65 45.8-21.23 45.15-22.8 44.05-23.3L44.05-23.3Q42.55-24.05 41.15-24.05ZM87.05-1.9L87.05-1.9 86.9-1.9Q82.4 0.2 78.14 0.2L78.14 0.2Q71.5 0.2 71.09-5.05L71.09-5.05Q71.05-5.4 71.05-5.7L71.05-5.7Q71.05-9.55 76.09-10.85L76.09-10.85Q79.09-11.5 86.9-12.4L86.9-12.4 86.9-16.8Q86.9-18.9 86.4-20.4 85.9-21.9 85.3-22.63 84.7-23.35 83.75-23.75L83.75-23.75Q82.55-24.25 81.07-24.25 79.59-24.25 77.7-23.5L77.7-23.5Q74.95-22.35 72.8-20.6L72.8-20.6 72.59-16.7 71.64-16.45 71.64-22.5 72.14-22.7Q76.05-24.4 78.09-24.75 80.15-25.1 81.09-25.13 82.05-25.15 82.92-25.1 83.8-25.05 85.2-24.65 86.59-24.25 87.62-23.53 88.65-22.8 89.4-21.35 90.15-19.9 90.15-17.9L90.15-17.9 90.15-2.6Q90.15-1.05 90.95-1.05L90.95-1.05 94-0.9 93.95-0.15Q91.15 0.25 88.95 0.25L88.95 0.25Q88.34 0.2 87.7-0.38 87.05-0.95 87.05-1.9ZM79.05-0.6L79.05-0.6Q82.75-0.6 86.9-3.2L86.9-3.2 86.9-11.45Q79.4-11.2 77.47-10.58 75.55-9.95 74.82-8.63 74.09-7.3 74.09-6L74.09-6Q74.09-5.75 74.09-5.5L74.09-5.5Q74.25-2.9 75.64-1.75 77.05-0.6 79.05-0.6ZM106.29 0L96.24 0.05 96.29-0.65 98.89-1Q99.24-1.05 99.34-1.5L99.34-1.5 99.34-35.7Q99.34-36.25 99.04-36.25L99.04-36.25 95.99-36.35 96.04-37.05Q99.19-37.5 100.37-37.5 101.54-37.5 102.07-36.85 102.59-36.2 102.59-35.45L102.59-35.45 102.59-1 106.34-0.75Q106.34-0.7 106.29 0L106.29 0ZM119.64 0L109.59 0.05 109.64-0.65 112.24-1Q112.59-1.05 112.69-1.5L112.69-1.5 112.69-35.7Q112.69-36.25 112.39-36.25L112.39-36.25 109.34-36.35 109.39-37.05Q112.54-37.5 113.72-37.5 114.89-37.5 115.42-36.85 115.94-36.2 115.94-35.45L115.94-35.45 115.94-1 119.69-0.75Q119.69-0.7 119.64 0L119.64 0ZM141.78-33.95L139.13-34.25 139.19-35 149.88-35Q160.69-35 160.69-26.55L160.69-26.55Q160.69-23.3 156.38-19.45L156.38-19.45Q162.73-17.9 162.73-10.35L162.73-10.35Q162.73-4.45 159.76-2.23 156.78 0 150.63 0L150.63 0 149.19 0 139.13 0.05 139.19-0.65 141.78-1Q142.28-1.05 142.38-1.65L142.38-1.65 142.38-33.25Q142.28-33.9 141.78-33.95L141.78-33.95ZM151.63-19.15L151.63-19.15 145.78-19.15 145.78-0.75 150.38-0.75Q159.33-0.75 159.33-10.15L159.33-10.15Q159.33-14.95 157.41-17.05 155.48-19.15 151.63-19.15ZM145.78-19.9L151.88-19.9Q153.73-19.9 155.08-19.7L155.08-19.7Q157.28-23.15 157.28-26.25L157.28-26.25Q157.28-34.25 149.63-34.25L149.63-34.25 145.78-34.25 145.78-19.9ZM172.43-22.95L172.43-22.95 172.43-1 176.18-0.75Q176.18-0.7 176.13 0L176.13 0 166.13 0.05Q166.13-0.4 166.18-0.65L166.18-0.65 168.78-1Q169.08-1 169.18-1.45L169.18-1.45 169.18-23.4Q169.08-23.75 168.88-23.75L168.88-23.75 165.88-23.85 165.93-24.55Q168.63-25 170.03-25 171.43-25 171.93-24.35 172.43-23.7 172.43-22.95ZM170.73-31.7Q169.73-31.7 169.18-32.33 168.63-32.95 168.63-33.98 168.63-35 169.21-35.63 169.78-36.25 170.78-36.25 171.78-36.25 172.41-35.63 173.03-35 173.03-33.93 173.03-32.85 172.38-32.27 171.73-31.7 170.73-31.7ZM189.08-0.95L189.08-0.95 191.03-1.05 191.18-0.55Q191.13-0.55 190.48-0.4L190.48-0.4Q188.98-0.05 187.13-0.05L187.13-0.05Q185.43-0.15 184.03-0.63 182.63-1.1 181.43-2.63 180.23-4.15 180.23-6.55L180.23-6.55 180.23-24.1 177.68-24.1 178.08-24.5 180.28-24.95 180.68-29.75 183.48-30 183.48-25 189.53-25 189.53-24.1 183.48-24.1 183.48-7.4Q183.48-3.6 185.08-2.27 186.68-0.95 189.08-0.95ZM196.48-11.5L196.48-11.5Q196.48-0.7 204.88-0.7L204.88-0.7Q207.08-0.7 209.58-1.18 212.08-1.65 212.78-2.05L212.78-2.05 213.13-1.55Q211.98-0.8 209.35-0.3 206.73 0.2 204.55 0.2 202.38 0.2 200.65-0.25 198.93-0.7 197.13-1.85 195.33-3 194.28-5.45 193.23-7.9 193.23-11.45L193.23-11.45Q193.23-18.05 196.63-21.55L196.63-21.55Q200.18-25.2 204.88-25.2 209.58-25.2 212.05-22.6 214.53-20 214.53-15.3L214.53-15.3Q214.53-14.3 214.38-13.15L214.38-13.15 196.53-13.15Q196.48-12.6 196.48-11.5ZM211.58-15.65L211.58-15.65Q211.58-19.4 209.93-21.78 208.28-24.15 205.43-24.15L205.43-24.15Q201.73-24.15 199.18-20.9L199.18-20.9Q197.13-18.35 196.63-14.1L196.63-14.1 211.53-14.1Q211.58-14.65 211.58-15.65ZM225.38-0.6L225.38-0.6Q225.68-0.6 225.98-0.65L225.98-0.65Q228.58-0.7 230.33-2.27 232.08-3.85 232.08-6.9L232.08-6.9Q232.08-9.9 227.38-11.25L227.38-11.25Q225.43-11.8 223.48-12.45 221.53-13.1 220.15-14.5 218.78-15.9 218.78-18.15L218.78-18.15Q218.78-21.35 221.23-23.28 223.68-25.2 227.43-25.2L227.43-25.2Q230.23-25.2 233.08-24.2L233.08-24.2 233.98-23.85 233.98-18.1 233.03-17.75 232.83-22Q229.93-24.3 227.98-24.3L227.98-24.3Q225.23-24.3 223.63-22.68 222.03-21.05 222.03-18.35L222.03-18.35Q222.03-16.8 223.4-15.85 224.78-14.9 226.73-14.35 228.68-13.8 230.63-13.13 232.58-12.45 233.95-10.93 235.33-9.4 235.33-6.95L235.33-6.95Q235.33-3.65 232.85-1.73 230.38 0.2 225.83 0.2 221.28 0.2 218.28-1.95L218.28-1.95 218.28-7.7 219.18-8.05 219.43-3.8Q220.13-2.5 221.95-1.55 223.78-0.6 225.38-0.6ZM263.07 0L253.02 0.05 253.07-0.65 255.67-1Q256.02-1.05 256.27-1.65L256.27-1.65 267.07-35 270.37-35 281.87-0.95 285.32-0.75Q285.32-0.7 285.27 0L285.27 0 275.27 0.05Q275.27-0.4 275.32-0.65L275.32-0.65 277.92-1Q278.32-1.05 278.32-1.6L278.32-1.6 275.57-9.75 259.97-9.75 257.32-1.05 263.12-0.75Q263.12-0.7 263.07 0L263.07 0ZM275.22-10.75L267.42-34.05 260.27-10.75 275.22-10.75ZM296.62 0L286.07 0.05 286.12-0.65 288.72-1Q289.17-1.05 289.17-1.7L289.17-1.7 289.17-24.1 286.62-24.1 287.02-24.5 289.17-24.95 289.17-31.05Q289.17-34.5 291.42-36.02 293.67-37.55 296.67-37.55L296.67-37.55Q298.67-37.55 300.07-37L300.07-37 299.92-36.65Q298.72-36.8 297.84-36.8 296.97-36.8 296.14-36.55 295.32-36.3 294.42-35.65L294.42-35.65Q292.42-34.2 292.42-29.9L292.42-29.9 292.42-25 298.47-25 298.47-24.1 292.42-24.1 292.42-1 296.67-0.75Q296.67-0.7 296.62 0L296.62 0ZM308.12-22.95L308.12-22.95 308.12-18.95Q312.07-24.75 315.87-24.85L315.87-24.85Q316.17-24.85 316.47-24.85L316.47-24.85 319.27-24.5 317.97-21.5Q317.02-22.45 315.52-22.45L315.52-22.45Q311.87-22.4 308.12-17.6L308.12-17.6 308.12-1 312.37-0.75Q312.37-0.7 312.32 0L312.32 0 301.82 0.05Q301.82-0.4 301.87-0.65L301.87-0.65 304.47-1Q304.87-1.05 304.87-1.7L304.87-1.7 304.87-23.4Q304.77-23.75 304.57-23.75L304.57-23.75 301.57-23.85 301.62-24.55Q304.32-25 305.72-25 307.12-25 307.62-24.35 308.12-23.7 308.12-22.95ZM328.31-22.95L328.31-22.95 328.31-1 332.06-0.75Q332.06-0.7 332.01 0L332.01 0 322.01 0.05Q322.01-0.4 322.06-0.65L322.06-0.65 324.66-1Q324.96-1 325.06-1.45L325.06-1.45 325.06-23.4Q324.96-23.75 324.76-23.75L324.76-23.75 321.76-23.85 321.81-24.55Q324.51-25 325.91-25 327.31-25 327.81-24.35 328.31-23.7 328.31-22.95ZM326.61-31.7Q325.61-31.7 325.06-32.33 324.51-32.95 324.51-33.98 324.51-35 325.09-35.63 325.66-36.25 326.66-36.25 327.66-36.25 328.29-35.63 328.91-35 328.91-33.93 328.91-32.85 328.26-32.27 327.61-31.7 326.61-31.7ZM349.56-24.3L349.56-24.3Q345.31-24.3 342.69-20.98 340.06-17.65 340.06-11.55L340.06-11.55Q340.06-0.7 348.31-0.7L348.31-0.7Q351.56-0.7 353.86-1.33 356.16-1.95 356.36-2.1L356.36-2.1 356.71-1.55Q355.56-0.8 352.91-0.3 350.26 0.2 348.11 0.2 345.96 0.2 344.21-0.25 342.46-0.7 340.69-1.85 338.91-3 337.86-5.48 336.81-7.95 336.81-11.5L336.81-11.5Q336.81-18.05 340.16-21.4L340.16-21.4Q343.91-25.25 349.61-25.25L349.61-25.25Q351.41-25.25 353.44-24.78 355.46-24.3 356.56-23.3L356.56-23.3 356.56-16.75 355.61-16.4 355.36-21.65Q354.26-22.8 352.69-23.55 351.11-24.3 349.56-24.3ZM377.86-1.9L377.86-1.9 377.71-1.9Q373.21 0.2 368.96 0.2L368.96 0.2Q362.31 0.2 361.91-5.05L361.91-5.05Q361.86-5.4 361.86-5.7L361.86-5.7Q361.86-9.55 366.91-10.85L366.91-10.85Q369.91-11.5 377.71-12.4L377.71-12.4 377.71-16.8Q377.71-18.9 377.21-20.4 376.71-21.9 376.11-22.63 375.51-23.35 374.56-23.75L374.56-23.75Q373.36-24.25 371.88-24.25 370.41-24.25 368.51-23.5L368.51-23.5Q365.76-22.35 363.61-20.6L363.61-20.6 363.41-16.7 362.46-16.45 362.46-22.5 362.96-22.7Q366.86-24.4 368.91-24.75 370.96-25.1 371.91-25.13 372.86-25.15 373.73-25.1 374.61-25.05 376.01-24.65 377.41-24.25 378.43-23.53 379.46-22.8 380.21-21.35 380.96-19.9 380.96-17.9L380.96-17.9 380.96-2.6Q380.96-1.05 381.76-1.05L381.76-1.05 384.81-0.9 384.76-0.15Q381.96 0.25 379.76 0.25L379.76 0.25Q379.16 0.2 378.51-0.38 377.86-0.95 377.86-1.9ZM369.86-0.6L369.86-0.6Q373.56-0.6 377.71-3.2L377.71-3.2 377.71-11.45Q370.21-11.2 368.28-10.58 366.36-9.95 365.63-8.63 364.91-7.3 364.91-6L364.91-6Q364.91-5.75 364.91-5.5L364.91-5.5Q365.06-2.9 366.46-1.75 367.86-0.6 369.86-0.6Z" opacity="1" transform="matrix(1,0,0,1,0,0)" fill="#f7d65a" class="wordmark-text-0" data-fill-palette-color="primary" id="text-0"></path></svg></g></svg></g><g transform="matrix(1,0,0,1,0,48.30148213762676)"><svg viewBox="0 0 232.209792 11.739641119563043" height="11.739641119563043" width="232.209792"><g transform="matrix(1,0,0,1,0,0)"><svg width="232.209792" viewBox="0.6000000238418579 -37.150001525878906 750.5700073242188 37.95000076293945" height="11.739641119563043" data-palette-color="#f7d65a"><path d="M28.65 0L25.15 0 21.65-9.55 7.5-9.55 4.35 0 0.6 0 12.7-34.1 16.2-34.1 28.65 0ZM14.4-29.2L8.65-12.65 20.5-12.65 14.4-29.2ZM41.05-34.05Q39.3-34.05 38.17-32.85 37.05-31.65 37.05-29.75L37.05-29.75 37.05-23.4 42.45-23.4 42.45-20.3 37.05-20.3 37.05 0 33.65 0 33.65-20.3 30.65-20.3 30.65-23.4 33.65-23.4 33.65-29.75Q33.65-33 35.72-35.08 37.8-37.15 41.05-37.15L41.05-37.15 42.45-37.15 42.45-34.05 41.05-34.05ZM57.65-24.2Q58.85-24.2 59.95-23.85L59.95-23.85 59.95-20.75Q58.9-21.25 57.65-21.25L57.65-21.25Q55.5-21.25 53.65-20.05 51.8-18.85 50.67-16.57 49.55-14.3 49.55-11.2L49.55-11.2 49.55 0 46.15 0 46.15-23.4 49.55-23.4 49.55-18.7Q50.9-21.3 52.97-22.75 55.05-24.2 57.65-24.2L57.65-24.2ZM68.34 0L64.94 0 64.94-23.4 68.34-23.4 68.34 0ZM66.64-27.95Q65.49-27.95 64.72-28.75 63.94-29.55 63.94-30.7L63.94-30.7Q63.94-31.8 64.72-32.58 65.49-33.35 66.64-33.35L66.64-33.35Q67.74-33.35 68.54-32.58 69.34-31.8 69.34-30.65L69.34-30.65Q69.34-29.55 68.54-28.75 67.74-27.95 66.64-27.95L66.64-27.95ZM86.64 0.8Q83.24 0.8 80.59-0.8 77.94-2.4 76.44-5.25 74.94-8.1 74.94-11.7L74.94-11.7Q74.94-15.3 76.42-18.15 77.89-21 80.54-22.6 83.19-24.2 86.54-24.2L86.54-24.2Q89.39-24.2 91.52-22.98 93.64-21.75 95.39-19.5L95.39-19.5 92.89-17.55Q90.44-21.1 86.54-21.1L86.54-21.1Q84.19-21.1 82.32-19.9 80.44-18.7 79.39-16.55 78.34-14.4 78.34-11.7L78.34-11.7Q78.34-9 79.39-6.85 80.44-4.7 82.32-3.5 84.19-2.3 86.54-2.3L86.54-2.3Q88.94-2.3 90.49-3.13 92.04-3.95 93.29-5.55L93.29-5.55 95.94-3.7Q94.29-1.65 91.87-0.43 89.44 0.8 86.64 0.8L86.64 0.8ZM118.69-23.4L122.09-23.4 122.09 0 118.69 0 118.69-3.45Q117.24-1.45 115.14-0.33 113.04 0.8 110.54 0.8L110.54 0.8Q107.19 0.8 104.54-0.8 101.89-2.4 100.39-5.25 98.89-8.1 98.89-11.75L98.89-11.75Q98.89-15.35 100.36-18.18 101.84-21 104.46-22.6 107.09-24.2 110.44-24.2L110.44-24.2Q112.99-24.2 115.11-23.08 117.24-21.95 118.69-19.9L118.69-19.9 118.69-23.4ZM110.44-2.3Q112.84-2.3 114.71-3.5 116.59-4.7 117.64-6.85 118.69-9 118.69-11.7L118.69-11.7Q118.69-14.4 117.64-16.55 116.59-18.7 114.71-19.9 112.84-21.1 110.44-21.1L110.44-21.1Q108.09-21.1 106.24-19.9 104.39-18.7 103.34-16.57 102.29-14.45 102.29-11.75L102.29-11.75Q102.29-9 103.34-6.85 104.39-4.7 106.24-3.5 108.09-2.3 110.44-2.3L110.44-2.3ZM139.54-24.2Q141.99-24.2 144.06-23.2 146.14-22.2 147.36-20.25 148.59-18.3 148.59-15.65L148.59-15.65 148.59 0 145.19 0 145.19-14.15Q145.19-21.1 138.99-21.1L138.99-21.1Q135.39-21.1 133.59-18.55 131.79-16 131.79-11.7L131.79-11.7 131.79 0 128.39 0 128.39-23.4 131.79-23.4 131.79-19.5Q132.99-21.75 134.96-22.98 136.94-24.2 139.54-24.2L139.54-24.2ZM178.58 0.8Q174.28 0.8 171.16-1.33 168.03-3.45 166.36-7.43 164.68-11.4 164.68-16.95L164.68-16.95Q164.68-22.55 166.36-26.58 168.03-30.6 171.16-32.73 174.28-34.85 178.58-34.85L178.58-34.85Q182.53-34.85 185.41-33.08 188.28-31.3 190.33-27.85L190.33-27.85 187.38-25.75Q184.23-31.45 178.58-31.45L178.58-31.45Q173.88-31.45 171.26-27.63 168.63-23.8 168.63-17L168.63-17Q168.63-10.25 171.28-6.43 173.93-2.6 178.58-2.6L178.58-2.6Q181.18-2.6 183.26-3.85 185.33-5.1 186.53-7.55 187.73-10 187.73-13.55L187.73-13.55 179.68-13.55 179.68-16.65 191.43-16.65 191.43-13.55Q191.43-8.9 189.78-5.68 188.13-2.45 185.21-0.83 182.28 0.8 178.58 0.8L178.58 0.8ZM206.88 0.8Q203.53 0.8 200.88-0.8 198.23-2.4 196.73-5.28 195.23-8.15 195.23-11.75L195.23-11.75Q195.23-15.35 196.7-18.18 198.18-21 200.8-22.6 203.43-24.2 206.78-24.2L206.78-24.2Q210.13-24.2 212.78-22.6 215.43-21 216.93-18.15 218.43-15.3 218.43-11.7L218.43-11.7Q218.43-8.1 216.95-5.25 215.48-2.4 212.85-0.8 210.23 0.8 206.88 0.8L206.88 0.8ZM206.78-2.3Q209.18-2.3 211.05-3.5 212.93-4.7 213.98-6.85 215.03-9 215.03-11.7L215.03-11.7Q215.03-14.4 213.98-16.55 212.93-18.7 211.05-19.9 209.18-21.1 206.78-21.1L206.78-21.1Q204.43-21.1 202.58-19.9 200.73-18.7 199.68-16.57 198.63-14.45 198.63-11.75L198.63-11.75Q198.63-9 199.68-6.85 200.73-4.7 202.58-3.5 204.43-2.3 206.78-2.3L206.78-2.3ZM233.43 0.8Q230.08 0.8 227.43-0.8 224.78-2.4 223.28-5.28 221.78-8.15 221.78-11.75L221.78-11.75Q221.78-15.35 223.25-18.18 224.73-21 227.35-22.6 229.98-24.2 233.33-24.2L233.33-24.2Q236.68-24.2 239.33-22.6 241.98-21 243.48-18.15 244.98-15.3 244.98-11.7L244.98-11.7Q244.98-8.1 243.5-5.25 242.03-2.4 239.4-0.8 236.78 0.8 233.43 0.8L233.43 0.8ZM233.33-2.3Q235.73-2.3 237.6-3.5 239.48-4.7 240.53-6.85 241.58-9 241.58-11.7L241.58-11.7Q241.58-14.4 240.53-16.55 239.48-18.7 237.6-19.9 235.73-21.1 233.33-21.1L233.33-21.1Q230.98-21.1 229.13-19.9 227.28-18.7 226.23-16.57 225.18-14.45 225.18-11.75L225.18-11.75Q225.18-9 226.23-6.85 227.28-4.7 229.13-3.5 230.98-2.3 233.33-2.3L233.33-2.3ZM268.12-36.3L271.52-36.3 271.52 0 268.12 0 268.12-3.45Q266.67-1.45 264.57-0.33 262.47 0.8 259.97 0.8L259.97 0.8Q256.62 0.8 253.97-0.8 251.32-2.4 249.82-5.25 248.32-8.1 248.32-11.75L248.32-11.75Q248.32-15.35 249.8-18.18 251.27-21 253.9-22.6 256.52-24.2 259.87-24.2L259.87-24.2Q262.42-24.2 264.55-23.08 266.67-21.95 268.12-19.9L268.12-19.9 268.12-36.3ZM259.87-2.3Q262.27-2.3 264.15-3.5 266.02-4.7 267.07-6.85 268.12-9 268.12-11.7L268.12-11.7Q268.12-14.4 267.07-16.55 266.02-18.7 264.15-19.9 262.27-21.1 259.87-21.1L259.87-21.1Q257.52-21.1 255.67-19.9 253.82-18.7 252.77-16.57 251.72-14.45 251.72-11.75L251.72-11.75Q251.72-9 252.77-6.85 253.82-4.7 255.67-3.5 257.52-2.3 259.87-2.3L259.87-2.3ZM288.97-24.2Q291.42-24.2 293.5-23.2 295.57-22.2 296.8-20.25 298.02-18.3 298.02-15.65L298.02-15.65 298.02 0 294.62 0 294.62-14.15Q294.62-21.1 288.42-21.1L288.42-21.1Q284.82-21.1 283.02-18.55 281.22-16 281.22-11.7L281.22-11.7 281.22 0 277.82 0 277.82-23.4 281.22-23.4 281.22-19.5Q282.42-21.75 284.4-22.98 286.37-24.2 288.97-24.2L288.97-24.2ZM314.77-24.2Q317.92-24.2 320.47-22.65 323.02-21.1 324.47-18.43 325.92-15.75 325.92-12.45L325.92-12.45Q325.92-11.5 325.87-11L325.87-11 306.62-11Q306.82-7.4 308.97-4.85 311.12-2.3 314.82-2.3L314.82-2.3Q317.82-2.3 319.79-3.43 321.77-4.55 322.97-6.55L322.97-6.55 325.67-4.75Q324.02-2.15 321.32-0.68 318.62 0.8 314.92 0.8L314.92 0.8Q311.52 0.8 308.87-0.8 306.22-2.4 304.72-5.25 303.22-8.1 303.22-11.7L303.22-11.7Q303.22-15.3 304.69-18.15 306.17-21 308.79-22.6 311.42-24.2 314.77-24.2L314.77-24.2ZM306.82-13.8L322.52-13.8Q322.02-17.45 320.07-19.28 318.12-21.1 314.77-21.1L314.77-21.1Q311.52-21.1 309.44-19.03 307.37-16.95 306.82-13.8L306.82-13.8ZM339.17 0.8Q335.77 0.8 333.19-0.65 330.62-2.1 329.27-4.75L329.27-4.75 332.32-6.25Q334.17-2.3 339.57-2.3L339.57-2.3Q342.17-2.3 343.87-3.25 345.57-4.2 345.57-6.2L345.57-6.2Q345.57-8.25 344.19-9.25 342.82-10.25 339.37-10.55L339.37-10.55Q334.57-10.95 332.49-12.7 330.42-14.45 330.42-17.35L330.42-17.35Q330.42-20.6 332.77-22.4 335.12-24.2 339.22-24.2L339.22-24.2Q346.17-24.2 348.67-18.7L348.67-18.7 345.62-17.2Q344.77-19.2 343.14-20.15 341.52-21.1 338.97-21.1L338.97-21.1Q336.37-21.1 334.99-20.15 333.62-19.2 333.62-17.45L333.62-17.45Q333.62-15.8 335.09-14.78 336.57-13.75 340.17-13.45L340.17-13.45Q344.62-13.05 346.79-11.28 348.97-9.5 348.97-6.6L348.97-6.6Q348.97-4.25 347.62-2.58 346.27-0.9 344.02-0.05 341.77 0.8 339.17 0.8L339.17 0.8ZM362.36 0.8Q358.96 0.8 356.39-0.65 353.81-2.1 352.46-4.75L352.46-4.75 355.51-6.25Q357.36-2.3 362.76-2.3L362.76-2.3Q365.36-2.3 367.06-3.25 368.76-4.2 368.76-6.2L368.76-6.2Q368.76-8.25 367.39-9.25 366.01-10.25 362.56-10.55L362.56-10.55Q357.76-10.95 355.69-12.7 353.61-14.45 353.61-17.35L353.61-17.35Q353.61-20.6 355.96-22.4 358.31-24.2 362.41-24.2L362.41-24.2Q369.36-24.2 371.86-18.7L371.86-18.7 368.81-17.2Q367.96-19.2 366.34-20.15 364.71-21.1 362.16-21.1L362.16-21.1Q359.56-21.1 358.19-20.15 356.81-19.2 356.81-17.45L356.81-17.45Q356.81-15.8 358.29-14.78 359.76-13.75 363.36-13.45L363.36-13.45Q367.81-13.05 369.99-11.28 372.16-9.5 372.16-6.6L372.16-6.6Q372.16-4.25 370.81-2.58 369.46-0.9 367.21-0.05 364.96 0.8 362.36 0.8L362.36 0.8ZM393.71 0L390.31 0 390.31-23.4 393.71-23.4 393.71 0ZM392.01-27.95Q390.86-27.95 390.08-28.75 389.31-29.55 389.31-30.7L389.31-30.7Q389.31-31.8 390.08-32.58 390.86-33.35 392.01-33.35L392.01-33.35Q393.11-33.35 393.91-32.58 394.71-31.8 394.71-30.65L394.71-30.65Q394.71-29.55 393.91-28.75 393.11-27.95 392.01-27.95L392.01-27.95ZM413.01-24.2Q415.46-24.2 417.53-23.2 419.61-22.2 420.83-20.25 422.06-18.3 422.06-15.65L422.06-15.65 422.06 0 418.66 0 418.66-14.15Q418.66-21.1 412.46-21.1L412.46-21.1Q408.86-21.1 407.06-18.55 405.26-16 405.26-11.7L405.26-11.7 405.26 0 401.86 0 401.86-23.4 405.26-23.4 405.26-19.5Q406.46-21.75 408.43-22.98 410.41-24.2 413.01-24.2L413.01-24.2ZM467.2-18.35Q470.15-17.6 471.75-15.45 473.35-13.3 473.35-9.8L473.35-9.8Q473.35-5.25 470.6-2.63 467.85 0 463.05 0L463.05 0 450.65 0 450.65-34.1 461.9-34.1Q466.45-34.1 469.05-31.73 471.65-29.35 471.65-25.4L471.65-25.4Q471.65-22.85 470.5-21.03 469.35-19.2 467.2-18.35L467.2-18.35ZM454.4-30.95L454.4-19.55 462.35-19.55Q467.7-19.55 467.7-25.4L467.7-25.4Q467.7-28.05 466.15-29.5 464.6-30.95 461.85-30.95L461.85-30.95 454.4-30.95ZM462.55-3.1Q465.75-3.1 467.58-4.9 469.4-6.7 469.4-9.8L469.4-9.8Q469.4-12.9 467.58-14.68 465.75-16.45 462.55-16.45L462.55-16.45 454.4-16.45 454.4-3.1 462.55-3.1ZM483.8 0L480.4 0 480.4-23.4 483.8-23.4 483.8 0ZM482.1-27.95Q480.95-27.95 480.17-28.75 479.4-29.55 479.4-30.7L479.4-30.7Q479.4-31.8 480.17-32.58 480.95-33.35 482.1-33.35L482.1-33.35Q483.2-33.35 484-32.58 484.8-31.8 484.8-30.65L484.8-30.65Q484.8-29.55 484-28.75 483.2-27.95 482.1-27.95L482.1-27.95ZM496.6 0L493.19 0 493.19-20.3 489.19-20.3 489.19-23.4 493.19-23.4 493.19-31.15 496.6-31.15 496.6-23.4 502-23.4 502-20.3 496.6-20.3 496.6 0ZM513.94 0.8Q510.54 0.8 507.97-0.65 505.39-2.1 504.04-4.75L504.04-4.75 507.09-6.25Q508.94-2.3 514.34-2.3L514.34-2.3Q516.94-2.3 518.64-3.25 520.34-4.2 520.34-6.2L520.34-6.2Q520.34-8.25 518.97-9.25 517.59-10.25 514.14-10.55L514.14-10.55Q509.34-10.95 507.27-12.7 505.19-14.45 505.19-17.35L505.19-17.35Q505.19-20.6 507.54-22.4 509.89-24.2 513.99-24.2L513.99-24.2Q520.94-24.2 523.44-18.7L523.44-18.7 520.39-17.2Q519.54-19.2 517.92-20.15 516.29-21.1 513.74-21.1L513.74-21.1Q511.14-21.1 509.77-20.15 508.39-19.2 508.39-17.45L508.39-17.45Q508.39-15.8 509.87-14.78 511.34-13.75 514.94-13.45L514.94-13.45Q519.39-13.05 521.57-11.28 523.74-9.5 523.74-6.6L523.74-6.6Q523.74-4.25 522.39-2.58 521.04-0.9 518.79-0.05 516.54 0.8 513.94 0.8L513.94 0.8ZM534.14 0L530.74 0 530.74-23.4 534.14-23.4 534.14 0ZM532.44-27.95Q531.29-27.95 530.51-28.75 529.74-29.55 529.74-30.7L529.74-30.7Q529.74-31.8 530.51-32.58 531.29-33.35 532.44-33.35L532.44-33.35Q533.54-33.35 534.34-32.58 535.14-31.8 535.14-30.65L535.14-30.65Q535.14-29.55 534.34-28.75 533.54-27.95 532.44-27.95L532.44-27.95ZM540.99-23.4L558.29-23.4 558.29-20.3 544.89-3.1 558.29-3.1 558.29 0 540.99 0 540.99-3.1 554.39-20.3 540.99-20.3 540.99-23.4ZM573.38-24.2Q576.53-24.2 579.08-22.65 581.63-21.1 583.08-18.43 584.53-15.75 584.53-12.45L584.53-12.45Q584.53-11.5 584.48-11L584.48-11 565.23-11Q565.43-7.4 567.58-4.85 569.73-2.3 573.43-2.3L573.43-2.3Q576.43-2.3 578.41-3.43 580.38-4.55 581.58-6.55L581.58-6.55 584.28-4.75Q582.63-2.15 579.93-0.68 577.23 0.8 573.53 0.8L573.53 0.8Q570.13 0.8 567.48-0.8 564.83-2.4 563.33-5.25 561.83-8.1 561.83-11.7L561.83-11.7Q561.83-15.3 563.31-18.15 564.78-21 567.41-22.6 570.03-24.2 573.38-24.2L573.38-24.2ZM565.43-13.8L581.13-13.8Q580.63-17.45 578.68-19.28 576.73-21.1 573.38-21.1L573.38-21.1Q570.13-21.1 568.06-19.03 565.98-16.95 565.43-13.8L565.43-13.8ZM614.18 0.8Q609.88 0.8 606.75-1.33 603.63-3.45 601.95-7.43 600.28-11.4 600.28-16.95L600.28-16.95Q600.28-22.55 601.9-26.58 603.53-30.6 606.55-32.73 609.58-34.85 613.73-34.85L613.73-34.85Q617.98-34.85 621-32.98 624.03-31.1 625.73-27.7L625.73-27.7 622.73-25.95Q621.13-28.9 618.98-30.18 616.83-31.45 613.73-31.45L613.73-31.45Q609.28-31.45 606.75-27.63 604.23-23.8 604.23-17L604.23-17Q604.23-12.55 605.38-9.3 606.53-6.05 608.68-4.33 610.83-2.6 613.68-2.6L613.68-2.6Q617.23-2.6 619.2-4.17 621.18-5.75 622.88-9.1L622.88-9.1 626.03-7.2Q624.23-3.3 621.25-1.25 618.28 0.8 614.18 0.8L614.18 0.8ZM642.08-24.2Q644.53-24.2 646.6-23.2 648.68-22.2 649.9-20.25 651.13-18.3 651.13-15.65L651.13-15.65 651.13 0 647.73 0 647.73-14.15Q647.73-21.1 641.53-21.1L641.53-21.1Q637.93-21.1 636.13-18.55 634.33-16 634.33-11.7L634.33-11.7 634.33 0 630.93 0 630.93-36.3 634.33-36.3 634.33-19.5Q635.53-21.75 637.5-22.98 639.48-24.2 642.08-24.2L642.08-24.2ZM674.77-23.4L678.17-23.4 678.17 0 674.77 0 674.77-3.9Q673.57-1.65 671.6-0.43 669.62 0.8 667.02 0.8L667.02 0.8Q664.57 0.8 662.5-0.2 660.42-1.2 659.2-3.15 657.97-5.1 657.97-7.75L657.97-7.75 657.97-23.4 661.37-23.4 661.37-9.25Q661.37-2.3 667.57-2.3L667.57-2.3Q671.17-2.3 672.97-4.85 674.77-7.4 674.77-11.7L674.77-11.7 674.77-23.4ZM695.62-24.2Q698.07-24.2 700.15-23.2 702.22-22.2 703.45-20.25 704.67-18.3 704.67-15.65L704.67-15.65 704.67 0 701.27 0 701.27-14.15Q701.27-21.1 695.07-21.1L695.07-21.1Q691.47-21.1 689.67-18.55 687.87-16 687.87-11.7L687.87-11.7 687.87 0 684.47 0 684.47-23.4 687.87-23.4 687.87-19.5Q689.07-21.75 691.05-22.98 693.02-24.2 695.62-24.2L695.62-24.2ZM729.57 0L725.77 0 717.57-12.05 714.72-9.3 714.72 0 711.32 0 711.32-36.3 714.72-36.3 714.72-13.6 724.97-23.4 729.37-23.4 719.92-14.3 729.57 0ZM741.37 0.8Q737.97 0.8 735.39-0.65 732.82-2.1 731.47-4.75L731.47-4.75 734.52-6.25Q736.37-2.3 741.77-2.3L741.77-2.3Q744.37-2.3 746.07-3.25 747.77-4.2 747.77-6.2L747.77-6.2Q747.77-8.25 746.39-9.25 745.02-10.25 741.57-10.55L741.57-10.55Q736.77-10.95 734.69-12.7 732.62-14.45 732.62-17.35L732.62-17.35Q732.62-20.6 734.97-22.4 737.32-24.2 741.42-24.2L741.42-24.2Q748.37-24.2 750.87-18.7L750.87-18.7 747.82-17.2Q746.97-19.2 745.34-20.15 743.72-21.1 741.17-21.1L741.17-21.1Q738.57-21.1 737.19-20.15 735.82-19.2 735.82-17.45L735.82-17.45Q735.82-15.8 737.29-14.78 738.77-13.75 742.37-13.45L742.37-13.45Q746.82-13.05 748.99-11.28 751.17-9.5 751.17-6.6L751.17-6.6Q751.17-4.25 749.82-2.58 748.47-0.9 746.22-0.05 743.97 0.8 741.37 0.8L741.37 0.8Z" opacity="1" transform="matrix(1,0,0,1,0,0)" fill="#f7d65a" class="slogan-text-1" data-fill-palette-color="secondary" id="text-1"></path></svg></g></svg></g></svg></g></svg></g><g><svg viewBox="0 0 80.37799481251011 82.97683234143632" height="82.97683234143632" width="80.37799481251011"><g><svg version="1.1" xmlns="http://www.w3.org/2000/svg" xmlns:xlink="http://www.w3.org/1999/xlink" x="0" y="0" viewBox="1.565999984741211 0 96.86799621582031 100" enable-background="new 1.566 0 96.868 100" xml:space="preserve" width="80.37799481251011" height="82.97683234143632" class="icon-icon-0" data-fill-palette-color="accent" id="icon-0"><g fill="#f7d65a" data-fill-palette-color="accent"><g fill="#f7d65a" data-fill-palette-color="accent"><polygon points="18.802,3.597 9.509,14.375 11.159,17.344 2.314,26.095 1.566,41.248 14.004,52.814 29.44,50.314 29.44,54.53 			40.233,54.53 37.537,61.406 40.233,67.133 42.979,69.323 36.785,79.321 47.577,92.815 48.475,100 60.617,98.908 73.658,82.657 			68.261,77.965 76.504,72.188 69.457,52.505 82.214,46.252 91.495,25.472 77.704,29.687 65.409,10.782 55.221,0.937 50.273,4.69 			48.475,3.437 40.532,3.597 42.181,8.747 30.94,8.283 33.188,0 20.147,8.283 		" fill="#f7d65a" data-fill-palette-color="accent"></polygon><polygon points="85.55,74.951 86.646,80.991 82.214,91.718 87.744,91.718 98.434,74.951 98.434,61.51 90.738,73.281 		" fill="#f7d65a" data-fill-palette-color="accent"></polygon></g></g></svg></g></svg></g></svg></g><defs></defs></svg><rect width="395.52" height="67.65087618205219" fill="none" stroke="none" visibility="hidden"></rect></g></svg></g></svg>